PathFileType	4	(X/Y/Z)	DARI_DATA/Captury_Subj8_bilateral_squat02.trc
DataRate	CameraRate	NumFrames	NumMarkers	Units	OrigDataRate	OrigDataStartFrame	OrigNumFrames
60	60	7	47	mm	59.99879837036133	60	239
Frame#	Time		LeftUpLeg_		RightUpLeg_		LeftLeg_		RightLeg_		LeftFoot_		RightFoot_		LeftToeBase_		RightToeBase_		Knee_Lateral_r		Knee_Lateral_l		Ankle_Lateral_r		Ankle_Lateral_l		LeftArm_		LeftForeArm_		LeftHand_		LeftHandEE		RightArm_		RightForeArm_		RightHand_		RightHandEE		Spine_		Spine1_		Spine2_		Spine3_		Spine4_		Spine5_		Spine_x		Spine_y		Spine_z		RASI		LASI		RIPS		LIPS		RTHI		LTHI		RTIB		LTIB		RTOE		LTOE		RHEE		LHEE		RHipAngles		LHipAngles		RKneeAngles		LKneeAngles		RAnkleAngles		LAnkleAngles
			X1	Y1	Z1	X2	Y2	Z2	X3	Y3	Z3	X4	Y4	Z4	X5	Y5	Z5	X6	Y6	Z6	X7	Y7	Z7	X8	Y8	Z8	X9	Y9	Z9	X10	Y10	Z10	X11	Y11	Z11	X12	Y12	Z12	X13	Y13	Z13	X14	Y14	Z14	X15	Y15	Z15	X16	Y16	Z16	X17	Y17	Z17	X18	Y18	Z18	X19	Y19	Z19	X20	Y20	Z20	X21	Y21	Z21	X22	Y22	Z22	X23	Y23	Z23	X24	Y24	Z24	X25	Y25	Z25	X26	Y26	Z26	X27	Y27	Z27	X28	Y28	Z28	X29	Y29	Z29	X30	Y30	Z30	X31	Y31	Z31	X32	Y32	Z32	X33	Y33	Z33	X34	Y34	Z34	X35	Y35	Z35	X36	Y36	Z36	X37	Y37	Z37	X38	Y38	Z38	X39	Y39	Z39	X40	Y40	Z40	X41	Y41	Z41	X42	Y42	Z42	X43	Y43	Z43	X44	Y44	Z44	X45	Y45	Z45	X46	Y46	Z46	X47	Y47	Z47

60	0.98333	-87.61249	927.78662	137.57597	88.84517	923.04614	122.39784	-102.19038	504.30344	94.14429	107.31190	499.27969	83.43928	-122.45309	110.46826	93.63741	129.39856	105.67795	93.77167	-154.33795	43.06362	-20.09296	167.57108	35.15578	-16.06508	155.73497	498.27225	90.10895	-150.89035	503.05045	98.27193	175.25107	109.76539	119.67031	-169.66013	113.61172	117.12173	-131.05740	1411.39661	116.65996	-190.19345	1387.59070	-156.64381	-191.95955	1405.08398	-397.12848	-191.62451	1390.28198	-483.87317	145.74251	1408.29297	107.15786	163.47993	1379.48181	-171.43515	150.22888	1388.07190	-412.04407	153.14359	1373.81897	-498.83240	4.52003	1023.78882	144.64638	3.89097	1115.96509	123.22591	3.00747	1181.41089	132.59552	-1.59163	1262.65015	164.73315	-6.95360	1393.83826	154.57520	-27904771620864.00000	0.00000	-27904805175296.00000	54.16489	1022.45514	140.37614	5.64256	1073.55969	142.15201	8.85057	1026.17700	194.24646	142.38777	984.19366	14.29208	-155.48134	992.19586	39.91350	46.16072	994.29218	172.48686	-33.27104	996.42609	179.31924	165.98526	722.71729	116.70449	-163.48349	727.21625	126.18410	158.43842	323.38861	78.60183	-152.22305	269.74701	76.87329	185.97508	18.41785	-88.58742	-171.31703	12.50288	-88.32861	129.53436	49.52413	156.74614	-125.80264	52.52020	154.87347	-7.86119	1.44123	12.43266	-7.85200	-2.99622	0.19217	-0.77231	1.48551	0.08883	0.13311	1.30516	-0.03290	15.14839	5.57443	11.41313	14.88370	5.57806	11.52296
61	1.00000	-87.84267	928.10614	137.36888	88.56634	922.99658	121.75121	-102.19741	504.72977	92.83661	106.63820	499.40894	80.71855	-122.32120	110.88794	92.06957	129.18861	105.85144	91.71395	-154.62244	43.21021	-21.38078	167.69196	35.41675	-18.06343	155.05275	498.31821	87.43685	-150.88541	503.42664	97.08808	175.00363	110.00317	117.66866	-169.46066	114.05865	115.68562	-130.81233	1411.95557	116.24425	-190.07359	1387.59082	-156.98317	-191.29951	1405.28162	-397.45676	-190.85205	1390.11646	-484.13818	146.20067	1409.18335	106.69930	163.77989	1379.74402	-171.83803	150.44046	1387.54309	-412.46893	153.20712	1373.72485	-499.33234	4.53429	1023.86688	144.52441	4.03703	1116.18811	123.21352	3.27962	1181.75354	132.58574	-1.13784	1263.15540	164.63997	-6.41294	1394.44543	154.23183	-27904771620864.00000	0.00000	-27904805175296.00000	54.16546	1022.42932	140.13052	5.76904	1073.64270	142.18645	8.98943	1026.08594	194.12132	141.99461	984.36304	13.71294	-155.79237	992.98828	40.07631	46.17146	994.18280	172.17023	-33.23840	996.48285	179.20045	165.50549	722.61829	115.15305	-163.58374	727.50635	125.63586	157.98347	323.57239	76.22791	-152.19751	270.16956	75.52336	186.18347	18.87324	-90.60812	-171.83423	12.47973	-89.48179	129.46719	49.72389	154.71136	-125.61269	53.12384	153.48235	-7.98297	1.54659	12.61883	-7.80611	-3.17289	0.21859	-1.12639	1.66512	0.09094	0.02874	1.34150	-0.01322	15.04978	5.57403	11.53300	15.07111	5.58232	11.66488
62	1.01667	-87.43781	927.72595	136.56409	88.95654	922.61987	120.78079	-101.94482	504.56848	90.04448	107.67470	499.59619	74.54936	-122.22594	110.73520	91.00408	128.72107	106.13577	90.76159	-154.65100	42.97682	-22.36272	167.27032	35.05612	-18.58308	156.07761	498.48615	81.34785	-150.63704	503.26764	94.24796	174.52222	110.30160	116.73849	-169.37971	113.96620	114.58331	-130.95239	1411.95496	115.74973	-189.76163	1387.30652	-157.54993	-190.14706	1405.30115	-398.00378	-189.76622	1389.80664	-484.62726	146.56099	1409.66064	106.34796	164.22424	1379.68811	-172.12723	150.80342	1386.84326	-412.77362	153.61639	1373.26282	-499.67307	4.99530	1023.39233	144.23787	4.49730	1115.86621	123.24280	3.74524	1181.49487	132.73370	-0.64926	1262.97131	164.80737	-6.01619	1394.32788	154.27802	-27904771620864.00000	0.00000	-27904805175296.00000	54.62234	1021.95575	139.79738	6.25465	1073.18091	142.20506	9.48927	1025.30396	193.84406	142.33527	984.62146	13.08121	-155.42694	993.24084	39.72419	46.63770	993.51691	171.66887	-32.76556	995.81543	178.77365	166.17651	722.43982	111.85542	-163.25905	727.21753	123.83007	158.35686	323.52283	72.43281	-152.02664	269.95392	73.73271	185.79590	18.09471	-91.02248	-171.88664	12.28934	-90.47705	128.95703	50.37629	154.08517	-125.79005	53.09026	152.51350	-8.36738	1.70186	12.74619	-7.72378	-3.17863	0.12519	-2.61867	1.57642	0.07624	-0.48977	1.38535	0.00537	14.58733	5.57846	11.68138	14.88482	5.59086	11.83570
63	1.03333	-86.95004	926.73395	136.87271	89.44164	921.53217	121.09074	-102.26974	504.26892	84.66767	109.03525	499.42737	67.42152	-122.45110	110.46793	90.18246	128.20825	106.18155	89.93854	-154.81787	42.52427	-23.09007	167.00156	34.80753	-19.12770	157.41135	498.27127	74.40079	-150.97162	503.01559	88.77252	173.94595	110.27991	116.03765	-169.65576	113.77507	113.64906	-130.85451	1411.35181	114.91850	-189.27051	1386.66455	-158.46191	-188.70422	1404.98828	-398.89050	-188.40851	1389.22913	-485.46652	147.07925	1409.44177	106.03751	164.86671	1379.04382	-172.38361	151.32706	1385.69934	-413.03772	154.16168	1372.73950	-500.03119	5.59944	1022.22327	145.31058	5.14056	1114.83325	124.50364	4.35797	1180.56775	133.90495	-0.14355	1262.28540	165.58705	-5.68555	1393.64954	154.12459	-27904771620864.00000	0.00000	-27904805175296.00000	55.22572	1020.75977	140.87045	6.92083	1072.02454	143.66486	10.08390	1023.74402	194.93115	142.92276	984.30225	13.88828	-154.83496	993.08307	40.52903	47.19831	992.08417	172.51825	-32.20375	994.42572	179.62245	167.02162	721.66205	108.92836	-163.17183	726.57581	121.32942	158.90530	323.11151	68.24876	-152.25381	269.46555	70.98482	185.69421	17.69816	-91.48932	-171.96754	11.80185	-91.21035	128.26054	50.58315	153.40402	-126.40234	53.00409	151.83752	-8.98582	1.94296	12.92451	-8.05127	-3.16472	0.05180	-4.57980	1.49551	0.05352	-1.93302	1.37141	0.01053	13.78367	5.58534	11.81121	14.33382	5.59304	12.02467
64	1.05000	-86.51176	925.20642	137.30579	89.86652	920.10693	121.34159	-102.77795	503.83292	77.16843	110.34846	499.13324	59.71066	-122.76929	110.16440	89.09734	128.19908	106.28000	89.11426	-155.04449	42.05856	-24.10393	166.79654	34.93693	-20.04170	158.73351	497.95425	66.62368	-151.48737	502.61990	81.19523	173.99210	110.32687	115.12429	-170.02213	113.54909	112.45570	-130.83351	1409.81604	113.95719	-188.23209	1385.37695	-159.66095	-187.26047	1404.01831	-400.06384	-186.84276	1388.66614	-486.71246	147.77266	1408.65259	105.64464	165.76338	1377.90234	-172.72478	152.04228	1384.16431	-413.37915	154.59254	1371.69373	-500.45288	6.09037	1020.54431	146.81126	5.61170	1113.35950	126.38801	4.83196	1179.21838	135.75755	0.35747	1261.21802	167.02423	-5.16393	1392.60437	154.48694	-27904771620864.00000	0.00000	-27904805175296.00000	55.71289	1019.10962	142.31987	7.43511	1070.36096	145.75516	10.60952	1021.47455	196.44328	143.30513	984.11768	14.85391	-154.42995	992.72595	41.80227	47.69303	990.06464	173.63103	-31.70300	992.36023	180.81726	167.87933	720.67578	105.34590	-163.19232	725.55884	117.92645	159.60692	322.68530	63.54778	-152.61160	268.80939	67.22982	185.33113	17.91304	-92.46413	-172.08928	11.32932	-92.24746	128.41663	50.67558	152.57413	-127.08702	52.86186	150.87782	-9.41355	2.13401	12.87562	-8.45780	-3.10291	-0.04653	-6.69481	1.46740	0.04541	-3.95531	1.37141	0.00135	12.73820	5.59317	11.89399	13.49924	5.58255	12.18319
65	1.06667	-86.05174	923.12164	138.12546	90.27608	917.84711	121.66863	-103.80661	503.08575	69.63168	111.83129	498.10260	52.48286	-123.32131	109.64743	88.13466	128.46820	105.76590	88.70459	-155.52841	41.74048	-25.20541	167.03342	34.80296	-20.71023	160.22043	496.92435	59.36733	-152.51997	501.96500	73.63734	174.27614	109.71609	114.70319	-170.59795	113.00919	111.44810	-130.86447	1407.49072	112.75171	-186.98361	1383.41113	-161.16357	-185.80318	1402.12134	-401.56021	-184.92601	1388.09241	-488.42950	148.43248	1407.12329	105.01107	166.84203	1376.01685	-173.29135	152.94478	1382.17578	-413.93829	154.84938	1370.17456	-501.09445	6.75421	1018.18976	148.31921	6.30333	1111.16248	128.16307	5.53754	1177.13147	137.45642	1.04276	1259.38916	168.30095	-4.65425	1390.76392	154.72697	-27904771620864.00000	0.00000	-27904805175296.00000	56.36253	1016.70581	143.68922	8.19063	1068.01172	147.74150	11.39916	1018.63129	197.94637	143.56944	982.78503	15.67073	-154.08049	991.68872	43.45065	48.36599	987.37433	174.73814	-31.00732	989.74866	182.14612	168.79942	718.93726	102.08296	-163.43713	724.17035	114.79033	160.53918	321.59427	59.36302	-153.33711	267.86597	63.57987	185.52187	18.13245	-93.22659	-172.50151	11.20932	-93.45580	128.72534	49.94596	151.97479	-127.83490	52.27346	149.83479	-9.94027	2.45555	12.94842	-9.05176	-3.07976	-0.17253	-8.74631	1.42955	0.07364	-6.06995	1.27004	-0.00704	11.52985	5.60367	11.91270	12.44695	5.56608	12.26930
66	1.08333	-85.47778	920.26532	140.70355	90.77585	914.94904	123.48293	-105.24719	502.30331	60.99332	114.39009	497.00723	44.71877	-123.98212	109.27109	87.29224	128.67577	105.32556	88.28838	-156.22041	41.54317	-26.14603	167.42654	34.74178	-21.30604	162.76331	495.88107	51.72288	-153.96078	501.29895	65.02713	174.40898	109.05532	114.45059	-171.25223	112.58698	110.62547	-130.79256	1404.31604	111.20776	-185.60429	1380.63147	-163.00650	-183.97339	1399.63501	-403.37750	-183.26947	1386.61072	-490.40466	149.07117	1404.54797	104.00442	167.95374	1373.46667	-174.26910	153.73759	1379.67932	-414.89606	155.24628	1367.91565	-502.09235	7.44691	1015.19855	151.07156	6.91385	1108.18604	130.77342	6.15669	1174.25549	139.67294	1.70484	1256.87439	169.66998	-4.10356	1388.09875	154.35410	-27904771620864.00000	0.00000	-27904805175296.00000	57.03436	1013.70288	146.22668	8.92139	1065.02185	150.78157	12.29829	1015.34375	200.68073	143.68127	980.46899	17.64896	-153.84341	989.44324	46.71822	49.14301	984.19507	177.13515	-30.19691	986.58820	184.88696	170.23477	716.88635	99.56447	-163.80658	722.36841	112.13689	162.06891	320.38562	55.04023	-154.31599	266.91296	59.61730	186.11255	18.44151	-93.85594	-173.19574	11.20443	-94.48161	128.53351	49.21945	151.30534	-128.50252	51.80531	148.90637	-11.00811	2.91826	13.25039	-10.27012	-3.00015	-0.31962	-11.18973	1.19774	0.13913	-8.76404	1.11504	0.00643	10.20004	5.61990	11.86802	11.21652	5.56033	12.29624
